<svg viewBox="0 0 308 84" fill="none" xmlns="http://www.w3.org/2000/svg">
  <path d="M122.154 36.754c-1.62-.824-2.791-1.873-3.564-3.172a7.943 7.943 0 0 1-1.147-4.147h4.836c0 .824.224 1.574.698 2.248.473.675 1.146 1.2 2.044 1.599.897.4 1.944.6 3.14.6 3.914 0 5.883-1.325 5.883-3.948 0-.799-.249-1.448-.723-1.948-.473-.5-1.171-.924-2.019-1.25-.872-.324-1.969-.599-3.315-.873-1.845-.4-3.465-.85-4.861-1.4-1.395-.549-2.567-1.348-3.539-2.422-.972-1.075-1.446-2.474-1.446-4.147 0-1.474.349-2.773 1.072-3.922.723-1.124 1.795-2.024 3.265-2.673 1.471-.65 3.316-.974 5.534-.974 2.144 0 3.963.325 5.459.974 1.495.65 2.592 1.574 3.365 2.773.772 1.199 1.121 2.573 1.121 4.172h-4.835c0-1.1-.424-1.974-1.296-2.673-.873-.675-2.144-1.025-3.864-1.025-1.82 0-3.116.325-3.863.95a3.02 3.02 0 0 0-1.122 2.398c0 .724.249 1.349.723 1.848.473.5 1.196.925 2.143 1.25.948.324 2.194.624 3.739.874 2.842.524 5.085 1.399 6.805 2.623 1.695 1.224 2.543 3.047 2.543 5.47 0 1.674-.449 3.123-1.322 4.322-.872 1.2-2.118 2.123-3.738 2.748-1.621.624-3.515.924-5.684.924-2.417.025-4.436-.375-6.032-1.199Zm39.583-8.119h-15.554c.15 1.075.498 1.974 1.022 2.748.523.775 1.171 1.374 1.969 1.774.798.4 1.62.624 2.543.624 1.171 0 2.118-.224 2.866-.699a4.078 4.078 0 0 0 1.645-1.998h5.11c-.349 1.224-.972 2.373-1.845 3.422-.872 1.049-1.969 1.898-3.315 2.523-1.321.624-2.791.95-4.362.95-1.944 0-3.714-.475-5.284-1.425a10.184 10.184 0 0 1-3.714-3.847c-.897-1.623-1.346-3.397-1.346-5.32 0-1.924.449-3.698 1.346-5.321a10 10 0 0 1 3.714-3.847c1.57-.95 3.34-1.424 5.284-1.424s3.689.474 5.21 1.399a9.707 9.707 0 0 1 3.564 3.747c.848 1.549 1.271 3.272 1.271 5.096-.025.45-.049.974-.124 1.598Zm-4.686-3.622a3.975 3.975 0 0 0-.823-2.048 5.257 5.257 0 0 0-1.919-1.499c-.798-.375-1.62-.55-2.543-.55-1.246 0-2.368.35-3.365 1.05-.997.7-1.67 1.723-2.044 3.072h10.694v-.025Zm13.111-7.619v3.622c.473-1.124 1.171-2.023 2.094-2.647.922-.625 1.994-.975 3.265-.975h2.143v4.047h-1.869c-1.072 0-2.019.25-2.842.774-.822.525-1.445 1.274-1.894 2.274-.449.999-.673 2.198-.673 3.597v9.293H165.7V17.394h4.462Zm8.275 0h4.985l4.637 12.066.523 2.098.499-2.073 4.636-12.09h5.01l-7.976 19.984h-4.362l-7.952-19.985Zm41.402 11.241h-15.578c.149 1.075.498 1.974 1.021 2.748.524.775 1.172 1.374 1.97 1.774.772.4 1.62.624 2.542.624 1.172 0 2.119-.224 2.867-.699.747-.45 1.296-1.124 1.645-1.998h5.11c-.349 1.224-.973 2.373-1.845 3.422s-1.969 1.898-3.315 2.523c-1.321.624-2.792.95-4.362.95-1.944 0-3.714-.475-5.285-1.425a10.181 10.181 0 0 1-3.713-3.847c-.898-1.623-1.346-3.397-1.346-5.32 0-1.924.448-3.698 1.346-5.321a9.998 9.998 0 0 1 3.713-3.847c1.571-.95 3.341-1.424 5.285-1.424s3.689.474 5.209 1.399a9.71 9.71 0 0 1 3.565 3.747c.847 1.549 1.271 3.272 1.271 5.096-.025.45-.05.974-.1 1.598Zm-4.711-3.622a3.982 3.982 0 0 0-.822-2.048 5.26 5.26 0 0 0-1.92-1.499c-.772-.375-1.62-.55-2.542-.55-1.246 0-2.368.35-3.365 1.05-.997.7-1.67 1.723-2.044 3.072h10.693v-.025Zm13.111-7.619v3.622c.474-1.124 1.172-2.023 2.094-2.647.922-.65 1.994-.975 3.265-.975h2.144v4.047h-1.869c-1.072 0-2.019.25-2.842.774-.823.525-1.446 1.274-1.894 2.274-.449.999-.673 2.198-.673 3.597v9.293h-4.686V17.394h4.461ZM239.082 10h4.686v27.379h-4.686V10Zm29.039 18.635h-15.579c.15 1.075.499 1.974 1.022 2.748.524.775 1.172 1.374 1.969 1.774.773.4 1.62.624 2.543.624 1.171 0 2.118-.224 2.866-.699.748-.45 1.296-1.124 1.645-1.998h5.11c-.349 1.224-.972 2.373-1.844 3.422-.873 1.049-1.97 1.898-3.316 2.523-1.321.624-2.791.95-4.362.95-1.944 0-3.714-.475-5.284-1.425a10.184 10.184 0 0 1-3.714-3.847c-.897-1.623-1.346-3.397-1.346-5.32 0-1.924.449-3.698 1.346-5.321a10 10 0 0 1 3.714-3.847c1.57-.95 3.34-1.424 5.284-1.424 1.945 0 3.689.474 5.21 1.399a9.707 9.707 0 0 1 3.564 3.747c.848 1.549 1.272 3.272 1.272 5.096 0 .45-.025.974-.1 1.598Zm-4.686-3.622a3.975 3.975 0 0 0-.823-2.048 5.248 5.248 0 0 0-1.919-1.499c-.773-.375-1.62-.55-2.543-.55-1.246 0-2.367.35-3.365 1.05-.997.7-1.67 1.723-2.043 3.072h10.693v-.025Zm11.042 11.99c-1.296-.649-2.243-1.498-2.891-2.572-.624-1.074-.948-2.198-.948-3.422l4.487.025c.05.949.399 1.723 1.122 2.323.698.6 1.695.874 2.991.874 1.171 0 2.069-.225 2.667-.674.598-.45.897-1.075.897-1.849 0-.55-.149-.974-.473-1.324-.324-.35-.773-.575-1.346-.774-.599-.175-1.396-.35-2.393-.5-2.169-.275-3.914-.9-5.185-1.873-1.296-.95-1.944-2.399-1.944-4.322 0-1.224.299-2.298.872-3.248.574-.924 1.446-1.648 2.568-2.148 1.121-.5 2.492-.774 4.063-.774 1.57 0 2.991.274 4.212.8 1.222.549 2.169 1.298 2.842 2.272.673.975.997 2.074.997 3.348l-4.587-.05c-.049-.775-.373-1.374-.972-1.849-.598-.45-1.421-.7-2.467-.7-.948 0-1.67.2-2.169.625-.498.425-.748.95-.748 1.599 0 .525.1.924.324 1.224.225.3.623.55 1.197.75.573.2 1.47.4 2.642.574 1.545.225 2.841.55 3.913.974 1.047.425 1.895 1.024 2.518 1.849.623.824.922 1.898.922 3.247 0 1.424-.349 2.623-1.072 3.597-.723.975-1.695 1.7-2.966 2.199-1.271.5-2.692.724-4.337.724-1.87.05-3.44-.275-4.736-.924Zm19.442 0c-1.296-.649-2.243-1.498-2.891-2.572-.623-1.074-.947-2.198-.947-3.422l4.486.025c.05.949.399 1.723 1.122 2.323.698.6 1.695.874 2.991.874 1.172 0 2.069-.225 2.667-.674.598-.45.898-1.075.898-1.849 0-.55-.15-.974-.474-1.324-.324-.35-.773-.575-1.346-.774-.598-.175-1.396-.35-2.393-.5-2.169-.275-3.913-.9-5.185-1.873-1.296-.95-1.944-2.399-1.944-4.322 0-1.224.299-2.298.873-3.248.573-.924 1.445-1.648 2.567-2.148 1.122-.5 2.493-.774 4.063-.774 1.57 0 2.991.274 4.212.8 1.222.549 2.169 1.298 2.842 2.272.673.975.997 2.074.997 3.348l-4.586-.05c-.05-.775-.374-1.374-.972-1.849-.599-.45-1.421-.7-2.468-.7-.947 0-1.67.2-2.169.625-.498.425-.747.95-.747 1.599 0 .525.099.924.324 1.224.224.3.623.55 1.196.75.573.2 1.471.4 2.642.574 1.546.225 2.842.55 3.914.974 1.046.425 1.894 1.024 2.517 1.849.623.824.922 1.898.922 3.247 0 1.424-.349 2.623-1.072 3.597-.722.975-1.694 1.7-2.966 2.199-1.271.5-2.692.724-4.337.724-1.869.05-3.464-.275-4.736-.924Zm-169.098 14.24h-7.851V46.92h20.514v4.322h-7.852V73.35h-4.811V51.243Zm31.582 13.364h-15.579c.149 1.075.498 1.974 1.022 2.748.523.775 1.171 1.374 1.969 1.774.773.4 1.62.624 2.542.624 1.172 0 2.119-.225 2.867-.7a4.078 4.078 0 0 0 1.645-1.998h5.11c-.349 1.224-.972 2.374-1.845 3.423-.872 1.049-1.969 1.898-3.315 2.523-1.321.624-2.792.949-4.362.949-1.944 0-3.714-.475-5.284-1.424a10.184 10.184 0 0 1-3.714-3.847c-.897-1.624-1.346-3.397-1.346-5.32 0-1.924.449-3.698 1.346-5.322a10 10 0 0 1 3.714-3.846c1.57-.95 3.34-1.424 5.284-1.424s3.689.474 5.21 1.398a9.707 9.707 0 0 1 3.564 3.748c.848 1.548 1.271 3.272 1.271 5.096 0 .45-.025.999-.099 1.598Zm-4.686-3.622a3.975 3.975 0 0 0-.823-2.048 5.265 5.265 0 0 0-1.919-1.5 5.822 5.822 0 0 0-2.543-.549c-1.246 0-2.368.35-3.365 1.05-.997.699-1.67 1.723-2.044 3.072h10.694v-.025Zm11.79 11.566c-1.446-.95-2.568-2.223-3.365-3.847-.823-1.624-1.222-3.397-1.222-5.32 0-1.924.399-3.698 1.222-5.297.822-1.598 1.944-2.897 3.365-3.847 1.42-.949 3.016-1.424 4.76-1.424 1.621 0 3.066.35 4.338 1.05a6.888 6.888 0 0 1 2.866 2.922v-3.372h4.462V73.4h-4.462v-3.372a6.888 6.888 0 0 1-2.866 2.923c-1.272.7-2.692 1.049-4.313 1.049-1.744-.025-3.34-.5-4.785-1.449Zm8.873-3.772c.898-.55 1.595-1.299 2.119-2.248.523-.95.773-1.999.773-3.148s-.275-2.198-.798-3.147a6.176 6.176 0 0 0-2.119-2.273 5.503 5.503 0 0 0-2.941-.825 5.712 5.712 0 0 0-2.941.8c-.898.524-1.596 1.249-2.119 2.198-.523.95-.798 2.023-.798 3.247 0 1.25.275 2.348.798 3.298a5.439 5.439 0 0 0 2.144 2.173c.897.5 1.869.75 2.916.75a5.59 5.59 0 0 0 2.966-.825Zm43.072-13.464c1.271 1.673 1.895 4.121 1.895 7.294v10.767h-4.637V62.709c0-1.899-.373-3.298-1.096-4.222-.723-.924-1.77-1.349-3.116-1.349-.848 0-1.62.25-2.368.775-.748.5-1.321 1.224-1.77 2.148-.448.924-.673 1.973-.673 3.123v10.192h-4.636V62.709c0-1.899-.374-3.298-1.097-4.222-.723-.9-1.77-1.349-3.091-1.349-.847 0-1.62.25-2.368.775-.747.5-1.321 1.224-1.769 2.148-.449.924-.673 1.973-.673 3.123v10.192h-4.637V53.39h4.387l.05 3.098c.524-1.1 1.371-1.974 2.493-2.673 1.146-.7 2.418-1.05 3.863-1.05 1.646 0 3.041.375 4.138 1.15 1.097.774 1.944 1.873 2.493 3.372.847-1.524 1.844-2.648 3.041-3.397a7.231 7.231 0 0 1 3.938-1.124c2.518.025 4.387.849 5.633 2.548Z" fill="#fff"/>
  <path fill-rule="evenodd" clip-rule="evenodd" d="M12.97 0c-6.628 0-12 5.373-12 12v60c0 6.627 5.372 12 12 12h60c6.627 0 12-5.373 12-12V12c0-6.627-5.373-12-12-12h-60Zm42.186 25.421v3.413c0 1.078.867 1.958 1.911 1.94h4.974c1.062 0 1.929-.88 1.929-1.958v-4.347c0-1.078-.867-1.958-1.93-1.958h-4.053c-1.575 0-2.85-1.293-2.85-2.892v-4.113c0-1.078-.866-1.958-1.928-1.958h-20.46c-1.063 0-1.93.88-1.93 1.958v4.131c0 1.6-1.274 2.892-2.85 2.892H23.9c-1.062 0-1.93.88-1.93 1.958v11.1c0 1.078.868 1.958 1.93 1.958h4.07c1.576 0 2.85 1.294 2.85 2.892v4.132c0 1.077.867 1.957 1.93 1.957h19.54c1.575 0 2.849 1.294 2.849 2.892v9.215c0 1.598-1.274 2.892-2.85 2.892h-18.62c-1.574 0-2.849-1.294-2.849-2.892V55.22c0-1.096-.867-1.976-1.947-1.958H23.9c-1.062 0-1.93.88-1.93 1.958v4.31c0 1.078.868 1.959 1.93 1.959h4.07c1.576 0 2.85 1.293 2.85 2.892v4.113c0 1.078.867 1.958 1.93 1.958h20.46c1.062 0 1.929-.88 1.929-1.958V64.38c0-1.598 1.274-2.891 2.85-2.891h4.053c1.062 0 1.929-.88 1.929-1.958V48.448c0-1.077-.867-1.958-1.93-1.958h-4.053c-1.575 0-2.85-1.293-2.85-2.891v-4.114c0-1.077-.866-1.957-1.928-1.957h-19.54c-1.575 0-2.85-1.294-2.85-2.892V25.42c0-1.598 1.275-2.892 2.85-2.892h18.637c1.575 0 2.85 1.294 2.85 2.892Z" fill="url(#a)"/>
  <defs>
    <linearGradient id="a" x1="-22.328" y1="110.741" x2="151.113" y2="-64.452" gradientUnits="userSpaceOnUse">
      <stop offset=".286" stop-color="#E46E46"/>
      <stop offset=".606" stop-color="#FCFF60"/>
    </linearGradient>
  </defs>
</svg>
